HIERARCHY
ROOT Hips
{
	OFFSET 0.00000 0.00000 0.00000
	CHANNELS 6 Xposition Yposition Zposition Zrotation Yrotation Xrotation 
	JOINT LHipJoint
	{
		OFFSET 0 0 0
		CHANNELS 3 Zrotation Yrotation Xrotation
		JOINT LeftHip
		{
			OFFSET 1.55766 -1.60504 1.11378
			CHANNELS 3 Zrotation Yrotation Xrotation
			JOINT LeftKnee
			{
				OFFSET 2.29047 -6.29302 0.00000
				CHANNELS 3 Zrotation Yrotation Xrotation
				JOINT LeftAnkle
				{
					OFFSET 2.52265 -6.93093 0.00000
					CHANNELS 3 Zrotation Yrotation Xrotation
					JOINT LeftToe
					{
						OFFSET 0.17633 -0.48446 2.02656
						CHANNELS 3 Zrotation Yrotation Xrotation
						End Site
						{
							OFFSET 0.00000 -0.00000 1.04989
						}
					}
				}
			}
		}
	}
	JOINT RHipJoint
	{
		OFFSET 0 0 0
		CHANNELS 3 Zrotation Yrotation Xrotation
		JOINT RightHip
		{
			OFFSET -1.48599 -1.60504 1.11378
			CHANNELS 3 Zrotation Yrotation Xrotation
			JOINT RightKnee
			{
				OFFSET -2.27280 -6.24448 0.00000
				CHANNELS 3 Zrotation Yrotation Xrotation
				JOINT RightAnkle
				{
					OFFSET -2.50834 -6.89161 0.00000
					CHANNELS 3 Zrotation Yrotation Xrotation
					JOINT RightToe
					{
						OFFSET -0.26967 -0.74090 2.08741
						CHANNELS 3 Zrotation Yrotation Xrotation
						End Site
						{
							OFFSET -0.00000 -0.00000 1.10614
						}
					}
				}
			}
		}
	}
	JOINT lowerback
	{
		OFFSET 0 0 0
		CHANNELS 3 Zrotation Yrotation Xrotation
		JOINT Chest
		{
			OFFSET 0.06481 2.02437 -0.08472
			CHANNELS 3 Zrotation Yrotation Xrotation
			JOINT Chest2
			{
				OFFSET 0.00015 1.96711 0.18069
				CHANNELS 3 Zrotation Yrotation Xrotation
				JOINT lowerneck
				{
					OFFSET 0 0 0
					CHANNELS 3 Zrotation Yrotation Xrotation
					JOINT Neck
					{
						OFFSET -0.29961 1.68293 -0.13041
						CHANNELS 3 Zrotation Yrotation Xrotation
						JOINT Head
						{
							OFFSET 0.59697 1.61501 -0.14669
							CHANNELS 3 Zrotation Yrotation Xrotation
							End Site
							{
								OFFSET 0.22973 1.74906 -0.10148
							}
						}
					}
				}
				JOINT LeftCollar
				{
					OFFSET 0 0 0
					CHANNELS 3 Zrotation Yrotation Xrotation
					JOINT LeftShoulder
					{
						OFFSET 3.37968 1.02893 0.31147
CHANNELS 3 Zrotation Xrotation Yrotation
						JOINT LeftElbow
						{
OFFSET 0 -5.198070 -0.000000
CHANNELS 3 Zrotation Xrotation Yrotation
							JOINT LeftWrist
							{
OFFSET 0 -3.093700 -0.000000
CHANNELS 3 Zrotation Xrotation Yrotation
								JOINT lhand
								{
									OFFSET 0 0 0
CHANNELS 3 Zrotation Xrotation Yrotation
									JOINT LFingers
									{
OFFSET 0 -0.672630 -0.000000
CHANNELS 3 Zrotation Xrotation Yrotation
										End Site
										{
OFFSET 0 -0.542290 -0.000000
										}
									}
								}
								JOINT LThumb
								{
OFFSET 0 0.000000 0.000000
CHANNELS 3 Zrotation Xrotation Yrotation
									End Site
									{
OFFSET 0 -0.550570 0.550570
									}
								}
							}
						}
					}
				}
				JOINT RightCollar
				{
					OFFSET 0 0 0
					CHANNELS 3 Zrotation Yrotation Xrotation
					JOINT RightShoulder
					{
						OFFSET -3.38254 0.96355 -0.16120
CHANNELS 3 Zrotation Xrotation Yrotation
						JOINT RightElbow
						{
OFFSET 0 -5.452220 -0.000000
CHANNELS 3 Zrotation Xrotation Yrotation
							JOINT RightWrist
							{
OFFSET 0 -3.012840 -0.000000
CHANNELS 3 Zrotation Xrotation Yrotation
								JOINT rhand
								{
									OFFSET 0 0 0
CHANNELS 3 Zrotation Xrotation Yrotation
									JOINT RFingers
									{
OFFSET 0 -0.622300 -0.000000
CHANNELS 3 Zrotation Xrotation Yrotation
										End Site
										{
OFFSET 0 -0.501710 -0.000000
										}
									}
								}
								JOINT RThumb
								{
OFFSET 0 0.000000 0.000000
CHANNELS 3 Zrotation Xrotation Yrotation
									End Site
									{
OFFSET 0 -0.509370 0.509370
									}
								}
							}
						}
					}
				}
			}
		}
	}
}
MOTION
Frames: 10
Frame Time: 0.008333333333333333
-3.955800 15.768600 44.128800 -141.731000 -82.649900 153.528000 0.000000 0.000000 0.000000 -12.570800 -2.127100 -21.997200 2.313500 9.490600 27.342200 0.975000 -12.078600 -18.355700 0.923700 -6.123100 -17.142100 0.000000 0.000000 0.000000 22.856300 2.855700 -22.556100 -2.276400 -9.419600 27.116800 0.069300 20.998200 -14.234200 -0.279700 3.401600 -9.398900 2.561600 1.565400 -10.500700 0.182000 1.548900 -6.818200 -1.102400 0.565600 -1.147700 -31.119000 -9.151200 18.204900 42.357000 -20.764400 -4.638200 21.779600 -13.168500 4.544600 -0.000000 -0.000000 0.000000 4.721500 12.279800 -30.478400 16.810300 -26.607100 4.002000 -9.879900 -40.255400 6.731800 0.000000 0.000000 0.000000 -7.125000 0.000000 0.000000 -26.123300 23.085700 -15.411700 -0.000000 -0.000000 0.000000 1.003700 7.703900 16.604800 -15.879600 -25.357100 -3.594200 -3.427300 32.491600 -10.117200 0.000000 0.000000 0.000000 7.125000 0.000000 -0.000000 16.633700 20.026600 10.372800
-3.961043 15.762494 44.064550 -140.511073 -83.041659 152.203895 0.000000 0.000000 0.000000 -12.393815 -2.780504 -21.545612 2.285756 9.437512 27.173855 1.000559 -11.595945 -18.450190 0.995563 -6.349949 -17.803188 0.000000 0.000000 0.000000 22.969986 2.774349 -22.551331 -2.331926 -9.525597 27.453877 0.008968 20.725912 -14.521945 -0.281171 3.410164 -9.422928 2.351207 1.454440 -10.409712 0.150335 1.425288 -6.816767 -1.030712 0.510370 -1.203847 -31.095198 -9.169174 18.238550 42.306504 -20.768689 -4.663481 21.734836 -13.164898 4.518217 0.000000 0.000000 0.000000 4.857231 12.276991 -30.681107 16.765591 -26.547670 3.982011 -9.302205 -39.963464 6.951762 0.000000 0.000000 0.000000 -7.125000 0.000000 0.000000 -25.701201 22.906503 -15.223128 0.000000 0.000000 0.000000 -0.820475 8.473631 22.567836 -16.069844 -25.615167 -3.676133 -4.392642 26.033278 -8.204946 0.000000 0.000000 0.000000 7.125000 0.000000 0.000000 16.153985 21.846923 9.351963
-3.970829 15.755314 43.990988 -138.058492 -83.363982 149.662940 0.000000 0.000000 0.000000 -12.015143 -3.503551 -21.151160 2.283193 9.432687 27.158298 1.035938 -11.072005 -18.628262 1.060219 -6.546745 -18.379232 0.000000 0.000000 0.000000 23.279873 2.721123 -22.426599 -2.358308 -9.575529 27.612929 -0.051893 20.371317 -14.759828 -0.283396 3.423713 -9.460650 2.229541 1.327556 -10.375667 0.193947 1.267120 -6.861363 -0.932916 0.434053 -1.277787 -30.874453 -9.166882 18.433399 42.478035 -20.669756 -4.822150 21.200056 -13.092621 4.340007 0.000000 0.000000 0.000000 4.932752 12.390710 -30.719480 16.728298 -26.498156 3.965352 -8.740762 -39.648136 7.215863 0.000000 0.000000 0.000000 -7.125000 0.000000 0.000000 -25.281100 22.684319 -15.062696 0.000000 0.000000 0.000000 -1.650094 9.140212 24.242713 -16.284794 -25.905227 -3.769526 -5.209717 23.431211 -6.858897 0.000000 0.000000 0.000000 7.125000 0.000000 0.000000 15.717545 23.134454 8.595941
-3.984330 15.746531 43.908851 -134.841472 -83.602291 146.401668 0.000000 0.000000 0.000000 -11.515590 -4.069982 -20.869348 2.287661 9.441166 27.185394 1.072230 -10.641970 -18.842970 1.149065 -6.806281 -19.142856 0.000000 0.000000 0.000000 23.720510 2.656823 -22.341322 -2.384128 -9.624175 27.768039 -0.095229 20.119377 -14.934140 -0.268701 3.334756 -9.212114 2.186366 1.253669 -10.397718 0.237925 1.169139 -6.929305 -0.872250 0.384523 -1.341769 -30.914409 -9.147085 18.525622 42.356010 -20.679480 -4.712797 21.144953 -13.089950 4.337169 0.000000 0.000000 0.000000 5.047900 12.498397 -30.647961 16.699251 -26.459554 3.952366 -8.398553 -39.434507 7.383991 0.000000 0.000000 0.000000 -7.125000 0.000000 0.000000 -25.023906 22.541183 -14.967537 0.000000 0.000000 0.000000 -2.055075 9.688392 23.905719 -16.327878 -25.963257 -3.788395 -5.656136 22.772588 -6.214538 0.000000 0.000000 0.000000 7.125000 0.000000 0.000000 15.467702 23.753062 8.219255
-4.000757 15.736666 43.817133 -131.631977 -83.775751 143.151871 0.000000 0.000000 0.000000 -10.965626 -4.676930 -20.544607 2.292337 9.450111 27.213769 1.115235 -10.065256 -19.099577 1.270805 -7.144729 -20.145066 0.000000 0.000000 0.000000 24.220826 2.528439 -22.285051 -2.412114 -9.676343 27.934937 -0.124717 20.016145 -15.100153 -0.248545 3.207960 -8.858269 2.194113 1.326655 -10.416299 0.140295 1.263872 -6.986565 -0.969101 0.428237 -1.386441 -30.703442 -9.264087 18.602031 42.288110 -20.835829 -4.654843 21.017255 -13.168247 4.363950 0.000000 0.000000 0.000000 5.455472 12.481046 -30.780037 16.666658 -26.416186 3.937929 -8.306204 -39.351575 7.447439 0.000000 0.000000 0.000000 -7.125000 0.000000 0.000000 -24.951171 22.485823 -14.949966 0.000000 0.000000 0.000000 -2.318404 10.231941 23.213908 -16.334612 -25.972228 -3.791276 -5.599254 22.543820 -6.113108 0.000000 0.000000 0.000000 7.125000 0.000000 0.000000 15.519988 23.851746 8.212286
-4.017477 15.725330 43.718515 -128.720801 -83.971377 140.170180 0.000000 0.000000 0.000000 -10.453970 -5.518938 -20.093778 2.297670 9.460299 27.246059 1.159299 -9.199575 -19.350549 1.426775 -7.552669 -21.363642 0.000000 0.000000 0.000000 24.700270 2.196676 -22.301591 -2.447063 -9.740990 28.141968 -0.133460 20.147344 -15.255789 -0.221132 3.026713 -8.353156 2.181138 1.346938 -10.403493 0.061546 1.290230 -7.062469 -1.041700 0.437617 -1.470680 -30.573799 -9.260177 18.705180 42.151886 -20.837684 -4.514633 20.921642 -13.162936 4.337250 0.000000 0.000000 0.000000 5.765557 12.555135 -30.679248 16.661770 -26.409724 3.935741 -8.172808 -39.260714 7.512960 0.000000 0.000000 0.000000 -7.125000 0.000000 0.000000 -24.851064 22.429746 -14.912682 0.000000 0.000000 0.000000 -2.871501 10.896861 23.608159 -16.384877 -26.039669 -3.813305 -5.736563 21.517927 -5.657926 0.000000 0.000000 0.000000 7.125000 0.000000 0.000000 15.472003 24.291430 8.021121
-4.033761 15.710503 43.612406 -125.534000 -84.127411 136.873758 0.000000 0.000000 0.000000 -9.880955 -6.713253 -19.542993 2.327212 9.516826 27.425774 1.209075 -7.869834 -19.661727 1.646992 -8.087768 -22.981380 0.000000 0.000000 0.000000 25.238316 1.742056 -22.327712 -2.482726 -9.806387 28.352129 -0.116588 20.481311 -15.345168 -0.180201 2.733393 -7.537292 2.237879 1.343383 -10.337962 0.013730 1.280454 -7.149933 -1.125565 0.426315 -1.596252 -30.576246 -9.205281 18.772292 41.990492 -20.796515 -4.309873 20.851896 -13.129044 4.329829 0.000000 0.000000 0.000000 5.991124 12.717366 -30.567452 16.683312 -26.438439 3.945332 -7.524903 -39.103878 7.728157 0.000000 0.000000 0.000000 -7.125000 0.000000 0.000000 -24.384025 22.250027 -14.684894 0.000000 0.000000 0.000000 -3.328698 11.431375 23.325819 -16.254401 -25.864366 -3.756302 -5.745712 21.361940 -5.539428 0.000000 0.000000 0.000000 7.125000 0.000000 0.000000 15.478972 24.406114 7.982096
-4.046729 15.690554 43.498155 -121.455556 -84.191885 132.646144 0.000000 0.000000 0.000000 -9.154123 -8.213807 -19.054198 2.414704 9.680978 27.949816 1.251102 -6.245991 -20.003611 1.899942 -8.653985 -24.719145 0.000000 0.000000 0.000000 25.910000 1.132402 -22.386931 -2.520169 -9.874403 28.571141 -0.049164 21.137946 -15.269758 -0.123328 2.262826 -6.232669 2.349473 1.352911 -10.200368 0.019608 1.288344 -7.214424 -1.184110 0.424117 -1.736497 -30.667200 -9.204349 18.752708 41.838858 -20.830697 -4.120405 20.771461 -13.124182 4.382516 0.000000 0.000000 0.000000 6.158721 12.848129 -30.458381 16.715457 -26.481109 3.959603 -6.786881 -38.927349 7.995188 0.000000 0.000000 0.000000 -7.125000 0.000000 0.000000 -23.847916 22.022141 -14.434773 0.000000 0.000000 0.000000 -3.658152 11.784006 22.317350 -15.987100 -25.503104 -3.640423 -5.654918 21.919440 -5.544450 0.000000 0.000000 0.000000 7.125000 0.000000 0.000000 15.544188 24.401812 8.019835
-4.051175 15.665119 43.382578 -116.555404 -84.174811 127.581277 0.000000 0.000000 0.000000 -8.316577 -9.871454 -18.968267 2.619487 10.051666 29.144493 1.268424 -4.503582 -20.281282 2.247347 -9.362406 -26.936432 0.000000 0.000000 0.000000 26.695447 0.209172 -22.610144 -2.563472 -9.952374 28.822711 0.081013 22.223056 -15.051773 -0.072181 1.731116 -4.763160 2.678919 1.361732 -9.991982 0.013923 1.285116 -7.230103 -1.378513 0.410408 -1.860586 -30.780596 -9.208961 18.673625 41.736748 -20.844797 -4.002880 20.721232 -13.109035 4.431611 0.000000 0.000000 0.000000 6.312809 12.891746 -30.196998 16.772277 -26.556586 3.985004 -6.073033 -38.778924 8.221588 0.000000 0.000000 0.000000 -7.125000 0.000000 0.000000 -23.334857 21.827715 -14.178844 0.000000 0.000000 0.000000 -3.920265 11.948662 21.073522 -15.663132 -25.061742 -3.502098 -5.404757 22.879955 -5.820494 0.000000 0.000000 0.000000 7.125000 0.000000 0.000000 15.693265 24.136416 8.203322
-4.044487 15.633145 43.266332 -110.399407 -83.905944 121.208461 0.000000 0.000000 0.000000 -7.172973 -11.320768 -19.693066 3.037592 10.754976 31.458729 1.241358 -3.057283 -20.273216 2.668941 -10.138219 -29.425991 0.000000 0.000000 0.000000 27.820457 -1.288153 -23.004291 -2.591807 -10.002973 28.986485 0.320398 23.926905 -14.580311 -0.030051 1.116035 -3.068047 3.384176 1.416118 -9.612235 0.011358 1.328978 -7.186190 -1.778835 0.409100 -2.007723 -30.724024 -9.271143 18.605192 41.686809 -20.841939 -4.109247 20.658889 -13.091105 4.397415 0.000000 0.000000 0.000000 6.520352 12.839815 -30.039977 16.885030 -26.706019 4.035554 -5.076624 -38.651174 8.523638 0.000000 0.000000 0.000000 -7.125000 0.000000 0.000000 -22.620724 21.564436 -13.815601 0.000000 0.000000 0.000000 -4.153019 11.982305 20.068943 -15.388314 -24.684183 -3.386466 -5.114966 23.655901 -6.108938 0.000000 0.000000 0.000000 7.125000 0.000000 0.000000 15.869018 23.859800 8.408263
